<?xml version="1.0" encoding="UTF-8" standalone="no"?><!-- Generator: Gravit.io --><svg xmlns="http://www.w3.org/2000/svg" xmlns:xlink="http://www.w3.org/1999/xlink" style="isolation:isolate" viewBox="0 0 1366 768" width="1366pt" height="768pt"><defs><clipPath id="_clipPath_HG1s6JNQmn2rmDbNxDoTKxZ3pXxoxfkg"><rect width="1366" height="768"/></clipPath></defs><g clip-path="url(#_clipPath_HG1s6JNQmn2rmDbNxDoTKxZ3pXxoxfkg)"><defs><filter id="5jsSLWKH30TUQEuzL18AAVZFmjn92n0q" x="-200%" y="-200%" width="400%" height="400%" filterUnits="objectBoundingBox" color-interpolation-filters="sRGB"><feOffset xmlns="http://www.w3.org/2000/svg" in="SourceGraphic" dx="0" dy="0"/><feGaussianBlur xmlns="http://www.w3.org/2000/svg" stdDeviation="2.146804531419514" result="pf_100_offsetBlur"/><feComposite xmlns="http://www.w3.org/2000/svg" in="SourceGraphic" in2="pf_100_offsetBlur" result="pf_100_inverse" operator="out"/><feFlood xmlns="http://www.w3.org/2000/svg" flood-color="#000000" flood-opacity="0.5" result="pf_100_color"/><feComposite xmlns="http://www.w3.org/2000/svg" in="pf_100_color" in2="pf_100_inverse" operator="in" result="pf_100_shadow"/><feComposite xmlns="http://www.w3.org/2000/svg" in="pf_100_shadow" in2="SourceGraphic" operator="over"/></filter></defs><g filter="url(#5jsSLWKH30TUQEuzL18AAVZFmjn92n0q)"><path d=" M -3 -6 C 425.428 -2.894 334.856 -188.326 425 -3 C 515.144 182.326 834.093 50.004 1074 148 C 1313.907 245.996 1241.742 272.051 1314 246 Q 1386.258 219.949 1499 188 L 1577 292 L 1794 541 L 1803 541 L 1812 541 L 1893 605 L 2003 382 L 1901 -78 L 1901 -78 L 1801.671 -44.208 C 1749.421 -26.432 1679.054 -47.026 1644.632 -90.168 L 1557 -200 L 1557 -200" fill="rgb(31,59,59)" style=":undefined;" vector-effect="non-scaling-stroke" stroke-width="1" stroke="rgb(24,33,57)" stroke-linejoin="miter" stroke-linecap="square" stroke-miterlimit="3"/></g><g style="isolation:isolate"/><g style="isolation:isolate"/><g style="isolation:isolate"/><path d=" M 1374 765 C 639.171 744.86 -1359.208 352.578 639 745 Q 2637.208 1137.422 25 710 Q 60.066 785.862 25 710 C -10.066 634.138 1988.103 950.931 -10 634 Q -2008.103 317.069 -1706 528 L -1706 528" fill="rgb(139,139,139)" vector-effect="non-scaling-stroke" stroke-width="1" stroke="rgb(0,0,0)" stroke-linejoin="miter" stroke-linecap="square" stroke-miterlimit="3"/></g></svg>