<svg height="307.38pt" viewBox="0 0 307.38 307.38" width="307.38pt" xmlns="http://www.w3.org/2000/svg"><path d="m153.679688 0h.019531c84.875 0 153.679687 68.804688 153.679687 153.679688v.019531c0 84.875-68.804687 153.679687-153.679687 153.679687h-.019531c-84.875 0-153.679688-68.804687-153.679688-153.679687v-.019531c0-84.875 68.804688-153.679688 153.679688-153.679688zm0 0" fill="#00acea"/><g fill="#d4e1f4"><path d="m224.691406 163.691406h-143c-5.523437 0-10-4.480468-10-10 0-5.523437 4.476563-10 10-10h143c5.519532 0 10 4.476563 10 10 0 5.519532-4.480468 10-10 10zm0 0"/><path d="m224.691406 117.691406h-143c-5.523437 0-10-4.480468-10-10 0-5.523437 4.476563-10 10-10h143c5.519532 0 10 4.476563 10 10 0 5.519532-4.480468 10-10 10zm0 0"/><path d="m224.691406 209.691406h-143c-5.523437 0-10-4.480468-10-10 0-5.523437 4.476563-10 10-10h143c5.519532 0 10 4.476563 10 10 0 5.519532-4.480468 10-10 10zm0 0"/></g></svg>