<?xml version="1.0" encoding="UTF-8" standalone="no"?><!-- Generator: Gravit.io --><svg xmlns="http://www.w3.org/2000/svg" xmlns:xlink="http://www.w3.org/1999/xlink" style="isolation:isolate" viewBox="0 0 1366 768" width="1366pt" height="768pt"><defs><clipPath id="_clipPath_UF2mW8EyZBajL2gPaXIRRWMrgu8jAm6o"><rect width="1366" height="768"/></clipPath></defs><g clip-path="url(#_clipPath_UF2mW8EyZBajL2gPaXIRRWMrgu8jAm6o)"><defs><filter id="uhoc4bl5kuv9BsoOQaO0XaxbzrWY2Gbh" x="-200%" y="-200%" width="400%" height="400%" filterUnits="objectBoundingBox" color-interpolation-filters="sRGB"><feOffset xmlns="http://www.w3.org/2000/svg" in="SourceGraphic" dx="0" dy="0"/><feGaussianBlur xmlns="http://www.w3.org/2000/svg" stdDeviation="2.146804531419514" result="pf_100_offsetBlur"/><feComposite xmlns="http://www.w3.org/2000/svg" in="SourceGraphic" in2="pf_100_offsetBlur" result="pf_100_inverse" operator="out"/><feFlood xmlns="http://www.w3.org/2000/svg" flood-color="#000000" flood-opacity="0.5" result="pf_100_color"/><feComposite xmlns="http://www.w3.org/2000/svg" in="pf_100_color" in2="pf_100_inverse" operator="in" result="pf_100_shadow"/><feComposite xmlns="http://www.w3.org/2000/svg" in="pf_100_shadow" in2="SourceGraphic" operator="over"/></filter></defs><g filter="url(#uhoc4bl5kuv9BsoOQaO0XaxbzrWY2Gbh)"><path d=" M -3 -6 C 425.428 -2.894 334.856 -188.326 425 -3 C 515.144 182.326 834.093 50.004 1074 148 C 1313.907 245.996 1241.742 272.051 1314 246 Q 1386.258 219.949 1499 188 L 1577 292 L 1794 541 L 1803 541 L 1812 541 L 1893 605 L 2003 382 L 1901 -78 L 1901 -78 L 1801.671 -44.208 C 1749.421 -26.432 1679.054 -47.026 1644.632 -90.168 L 1557 -200 L 1557 -200" fill="rgb(31,59,59)" style=":undefined;" vector-effect="non-scaling-stroke" stroke-width="1" stroke="rgb(24,33,57)" stroke-linejoin="miter" stroke-linecap="square" stroke-miterlimit="3"/></g><ellipse vector-effect="non-scaling-stroke" cx="355.0000000000001" cy="791" rx="121.5" ry="86" fill="rgb(162,162,162)" stroke-width="1" stroke="rgb(185,185,185)" stroke-linejoin="miter" stroke-linecap="butt" stroke-miterlimit="3"/><ellipse vector-effect="non-scaling-stroke" cx="205.50000000000006" cy="771.2500000000002" rx="149.50000000000006" ry="86" fill="rgb(162,162,162)" stroke-width="1" stroke="rgb(185,185,185)" stroke-linejoin="miter" stroke-linecap="butt" stroke-miterlimit="3"/><ellipse vector-effect="non-scaling-stroke" cx="-55.25000000000003" cy="731.7499999999999" rx="200.00000000000009" ry="126.75" fill="rgb(162,162,162)" stroke-width="1" stroke="rgb(162,162,162)" stroke-linejoin="miter" stroke-linecap="butt" stroke-miterlimit="3"/><ellipse vector-effect="non-scaling-stroke" cx="549.4999999999997" cy="791.0000000000001" rx="104" ry="86" fill="rgb(162,162,162)" stroke-width="1" stroke="rgb(185,185,185)" stroke-linejoin="miter" stroke-linecap="butt" stroke-miterlimit="3"/><ellipse vector-effect="non-scaling-stroke" cx="443.4999999999998" cy="758.7500000000001" rx="209.99999999999977" ry="86" fill="rgb(162,162,162)" stroke-width="1" stroke="rgb(162,162,162)" stroke-linejoin="miter" stroke-linecap="butt" stroke-miterlimit="3"/><ellipse vector-effect="non-scaling-stroke" cx="744.5000000000001" cy="791" rx="164.0000000000001" ry="86" fill="rgb(162,162,162)" stroke-width="1" stroke="rgb(185,185,185)" stroke-linejoin="miter" stroke-linecap="butt" stroke-miterlimit="3"/><ellipse vector-effect="non-scaling-stroke" cx="758.25" cy="758.7500000000001" rx="281.74999999999994" ry="137.5" fill="rgb(162,162,162)"/><ellipse vector-effect="non-scaling-stroke" cx="1120" cy="688.8750000000001" rx="20" ry="16.125" fill="rgb(235,235,235)"/><ellipse vector-effect="non-scaling-stroke" cx="1189.0000000000002" cy="746.2500000000001" rx="280.5" ry="73.49999999999989" fill="rgb(162,162,162)"/><ellipse vector-effect="non-scaling-stroke" cx="872.5" cy="629" rx="186" ry="76.5" fill="rgb(255,255,255)"/><ellipse vector-effect="non-scaling-stroke" cx="155.50000000000006" cy="-417.0624999999999" rx="155.50000000000006" ry="41.937500000000114" fill="rgb(235,235,235)"/><ellipse vector-effect="non-scaling-stroke" cx="443.4999999999998" cy="621.2500000000002" rx="298.7499999999998" ry="100.5" fill="rgb(255,255,255)"/><ellipse vector-effect="non-scaling-stroke" cx="-303.00000000000006" cy="952.6249999999998" rx="68" ry="108.375" fill="rgb(162,162,162)"/><ellipse vector-effect="non-scaling-stroke" cx="-142.00000000000003" cy="815.25" rx="65.99999999999997" ry="109.75" fill="rgb(162,162,162)"/><ellipse vector-effect="non-scaling-stroke" cx="818.25" cy="1062.25" rx="169.7500000000001" ry="105.75" fill="rgb(235,235,235)"/><g style="isolation:isolate"/><g style="isolation:isolate"/><g style="isolation:isolate"/></g></svg>