<?xml version="1.0" encoding="utf-8"?>
<!-- Generator: Adobe Illustrator 16.0.0, SVG Export Plug-In . SVG Version: 6.00 Build 0)  -->
<!DOCTYPE svg PUBLIC "-//W3C//DTD SVG 1.1//EN" "http://www.w3.org/Graphics/SVG/1.1/DTD/svg11.dtd">
<svg version="1.1" id="Layer_1" xmlns="http://www.w3.org/2000/svg" xmlns:xlink="http://www.w3.org/1999/xlink" x="0px" y="0px"
	 width="1400px" height="980px" viewBox="0 0 1400 980" enable-background="new 0 0 1400 980" xml:space="preserve">
<g>
	<g>
		<g>
			<rect x="0" fill="#FFFFFF" width="1400" height="980"/>
		</g>
	</g>
	<g>
		<path fill="#F1F2F2" d="M992.8,893.6c0-22.5-18.3-40.8-40.8-40.8H432.2c-22.5,0-40.8,18.3-40.8,40.8l0,0
			c0,22.5,18.3,40.8,40.8,40.8H952C974.5,934.4,992.8,916.1,992.8,893.6L992.8,893.6z"/>
	</g>
	<g>
		<g>
			<path fill="#FFFFFF" d="M1327.1,117.7c0-10.1-8.2-18.3-18.3-18.3h-158.5c-10.1,0-18.3,8.2-18.3,18.3V395h195V117.7z"/>
			<path d="M1327.1,397.1h-195c-1.2,0-2.1-1-2.1-2.1V117.7c0-11.3,9.2-20.4,20.4-20.4h158.5c11.3,0,20.4,9.2,20.4,20.4V395
				C1329.3,396.1,1328.3,397.1,1327.1,397.1z M1134.3,392.8H1325V117.7c0-8.9-7.2-16.1-16.1-16.1h-158.5c-8.9,0-16.1,7.2-16.1,16.1
				V392.8z"/>
		</g>
		<g>
			<path fill="#BCBEC0" d="M1132.1,395v35c0,10.1,8.2,18.3,18.3,18.3h158.5c10.1,0,18.3-8.2,18.3-18.3v-35H1132.1z"/>
			<path d="M1308.9,450.4h-158.5c-11.3,0-20.4-9.2-20.4-20.4v-35c0-1.2,1-2.1,2.1-2.1h195c1.2,0,2.1,1,2.1,2.1v35
				C1329.3,441.3,1320.1,450.4,1308.9,450.4z M1134.3,397.1V430c0,8.9,7.2,16.1,16.1,16.1h158.5c8.9,0,16.1-7.2,16.1-16.1v-32.9
				H1134.3z"/>
		</g>
	</g>
	<g>
		<rect x="1148.7" y="117.2" fill="#E6E7E8" width="159.5" height="260"/>
		<path d="M1308.3,379.3h-159.5c-1.2,0-2.1-1-2.1-2.1v-260c0-1.2,1-2.1,2.1-2.1h159.5c1.2,0,2.1,1,2.1,2.1v260
			C1310.4,378.3,1309.4,379.3,1308.3,379.3z M1150.9,375h155.2V119.3h-155.2V375z"/>
	</g>
	<g>
		<g>
			<path d="M181.5,264.9c-0.7,0-1.4-0.4-1.8-1c-0.6-1-0.3-2.3,0.7-3c5.8-3.6,9.6-5.2,9.7-5.2c1.1-0.4,2.3,0,2.8,1.1
				c0.5,1.1-0.1,2.4-1.1,2.8c0,0-3.6,1.5-9.1,4.9C182.3,264.8,181.9,264.9,181.5,264.9z"/>
		</g>
		<g>
			<path d="M196.4,523.1c-0.5,0-1.1-0.2-1.5-0.6c-5-5-10-10.2-14.8-15.5c-0.8-0.9-0.7-2.2,0.1-3c0.9-0.8,2.2-0.7,3,0.1
				c4.7,5.2,9.6,10.3,14.6,15.3c0.8,0.8,0.8,2.2,0,3C197.5,522.9,196.9,523.1,196.4,523.1z M170.4,494.9c-0.6,0-1.2-0.3-1.6-0.8
				c-4.7-5.6-9.2-11.2-13.4-16.7c-0.7-0.9-0.5-2.3,0.4-3c0.9-0.7,2.3-0.5,3,0.4c4.1,5.5,8.6,11,13.2,16.5c0.8,0.9,0.7,2.3-0.3,3
				C171.4,494.7,170.9,494.9,170.4,494.9z M147.2,464.4c-0.7,0-1.4-0.3-1.8-0.9c-4.1-6.1-7.9-12.2-11.3-18.2c-0.6-1-0.2-2.3,0.8-2.9
				c1-0.6,2.3-0.2,2.9,0.8c3.3,5.9,7.1,11.9,11.1,17.9c0.7,1,0.4,2.3-0.6,3C148.1,464.3,147.6,464.4,147.2,464.4z M128.2,431.2
				c-0.8,0-1.6-0.5-2-1.2c-3.2-6.8-5.8-13.6-7.8-20.1c-0.4-1.1,0.3-2.3,1.4-2.7c1.1-0.3,2.3,0.3,2.7,1.4c2,6.3,4.5,12.9,7.6,19.5
				c0.5,1.1,0,2.4-1,2.9C128.8,431.2,128.5,431.2,128.2,431.2z M116.6,394.9c-1,0-1.9-0.7-2.1-1.8c-0.9-5.4-1.3-10.8-1.3-15.9
				c0-1.9,0.1-3.8,0.2-5.7c0.1-1.2,1-2.1,2.3-2c1.2,0.1,2.1,1.1,2,2.3c-0.1,1.8-0.2,3.6-0.2,5.4c0,4.9,0.4,10,1.3,15.2
				c0.2,1.2-0.6,2.3-1.8,2.5C116.8,394.9,116.7,394.9,116.6,394.9z M118.1,356.9c-0.2,0-0.3,0-0.5-0.1c-1.2-0.3-1.9-1.4-1.6-2.6
				c1.6-7.1,3.6-14,6-20.7c0.4-1.1,1.7-1.7,2.8-1.3c1.1,0.4,1.7,1.6,1.3,2.8c-2.4,6.4-4.3,13.2-5.9,20.1
				C120,356.3,119.1,356.9,118.1,356.9z M130.8,321c-0.3,0-0.7-0.1-1-0.2c-1.1-0.5-1.5-1.8-1-2.9c3.2-6.5,7-12.7,11.1-18.5
				c0.7-1,2-1.2,3-0.5c1,0.7,1.2,2,0.5,3c-4,5.7-7.6,11.7-10.7,18C132.4,320.5,131.6,321,130.8,321z M152.3,289.4
				c-0.5,0-1-0.2-1.4-0.6c-0.9-0.8-1-2.2-0.2-3c4.8-5.4,10.1-10.4,15.6-14.9c0.9-0.7,2.3-0.6,3,0.3c0.7,0.9,0.6,2.3-0.3,3
				c-5.4,4.4-10.5,9.2-15.1,14.4C153.5,289.2,152.9,289.4,152.3,289.4z"/>
		</g>
		<g>
			<path d="M216.6,542c-0.5,0-1-0.2-1.4-0.5c0,0-3-2.6-8.1-7.2c-0.9-0.8-0.9-2.2-0.1-3c0.8-0.9,2.2-0.9,3-0.1
				c4.9,4.6,7.9,7.1,7.9,7.1c0.9,0.8,1,2.1,0.3,3C217.8,541.8,217.2,542,216.6,542z"/>
		</g>
	</g>
	<g>
		<g>
			<path fill="#FFF9CE" d="M578.4,103.3l-17.5-17.5l-17.4,17.5L526,85.9c0,0-17.5,17.5-17.4,17.5l-17.5-17.5l-17.4,17.5l-17.4-17.5
				c0,0-17.5,17.5-17.4,17.5l-17.5-17.5l-17.4,17.5l-17.4-17.5c0,0-17.5,17.5-17.4,17.5l-17.5-17.5l-17.4,17.5L319,88.2v343.5h274.4
				V88.2C588.7,93,578.4,103.3,578.4,103.3z"/>
			<path d="M593.5,433.8H319c-1.2,0-2.1-1-2.1-2.1V88.2c0-0.9,0.5-1.7,1.3-2c0.8-0.3,1.7-0.1,2.3,0.5l13.6,13.6L350,84.3
				c0.8-0.8,2.2-0.8,3,0l16,16c2.3-2.5,6.9-7.1,15.8-16c0.4-0.4,0.9-0.6,1.5-0.6l0,0c0.6,0,1.1,0.2,1.5,0.6l15.9,15.9l15.9-15.9
				c0.8-0.8,2.2-0.8,3,0l16,16c2.3-2.5,6.9-7.1,15.8-16c0.4-0.4,0.9-0.6,1.5-0.6l0,0c0.6,0,1.1,0.2,1.5,0.6l15.9,15.9l15.9-15.9
				c0.8-0.8,2.2-0.8,3,0l16,16c2.3-2.5,6.9-7.1,15.8-16c0.4-0.4,0.9-0.6,1.5-0.6l0,0c0.6,0,1.1,0.2,1.5,0.6l15.9,15.9l15.9-15.9
				c0.8-0.8,2.2-0.8,3,0l16,16c1.3-1.4,3.3-3.3,6.2-6.3l7.3-7.3c0.6-0.6,1.5-0.8,2.3-0.5c0.8,0.3,1.3,1.1,1.3,2v343.5
				C595.6,432.9,594.6,433.8,593.5,433.8z M321.2,429.5h270.1V93.4l-3.6,3.6c-3.8,3.8-7.4,7.4-7.8,7.8c-0.1,0.1-0.2,0.2-0.4,0.3
				c-0.9,0.6-2,0.5-2.7-0.3l-15.9-15.9L545,104.8c-0.8,0.8-2.2,0.8-3,0L526,88.9c-4.1,4.1-15.3,15.3-15.9,15.9
				c-0.1,0.1-0.2,0.2-0.4,0.3c-0.8,0.6-2,0.5-2.7-0.3l-15.9-15.9l-15.9,15.9c-0.8,0.8-2.2,0.8-3,0l-15.9-15.9
				c-4.1,4.1-15.3,15.3-15.9,15.9c-0.1,0.1-0.2,0.2-0.4,0.3c-0.9,0.6-2,0.5-2.7-0.3l-15.9-15.9l-15.9,15.9c-0.8,0.8-2.2,0.8-3,0
				l-15.9-15.9c-4.1,4.1-15.3,15.3-15.9,15.9c-0.1,0.1-0.2,0.2-0.4,0.3c-0.9,0.6-2,0.5-2.7-0.3l-15.9-15.9l-15.9,15.9
				c-0.8,0.8-2.2,0.8-3,0l-11.4-11.4V429.5z"/>
		</g>
		<g>
			<path d="M561.6,152.4H348.7c-1.2,0-2.1-1-2.1-2.1s1-2.1,2.1-2.1h212.8c1.2,0,2.1,1,2.1,2.1S562.8,152.4,561.6,152.4z"/>
		</g>
		<g>
			<path d="M426.1,194.3h-77.3c-1.2,0-2.1-1-2.1-2.1c0-1.2,1-2.1,2.1-2.1h77.3c1.2,0,2.1,1,2.1,2.1
				C428.2,193.3,427.3,194.3,426.1,194.3z"/>
		</g>
		<g>
			<path d="M561.6,194.3h-97.9c-1.2,0-2.1-1-2.1-2.1c0-1.2,1-2.1,2.1-2.1h97.9c1.2,0,2.1,1,2.1,2.1
				C563.7,193.3,562.8,194.3,561.6,194.3z"/>
		</g>
		<g>
			<path d="M426.1,231.9h-77.3c-1.2,0-2.1-1-2.1-2.1c0-1.2,1-2.1,2.1-2.1h77.3c1.2,0,2.1,1,2.1,2.1
				C428.2,230.9,427.3,231.9,426.1,231.9z"/>
		</g>
		<g>
			<path d="M561.6,231.9h-97.9c-1.2,0-2.1-1-2.1-2.1c0-1.2,1-2.1,2.1-2.1h97.9c1.2,0,2.1,1,2.1,2.1
				C563.7,230.9,562.8,231.9,561.6,231.9z"/>
		</g>
	</g>
	<g>
		<g>
			<path fill="#BCBEC0" d="M359.3,693.1V729c0,14.6,11.8,26.4,26.4,26.4h628.5c14.6,0,26.4-11.8,26.4-26.4v-35.9H359.3z"/>
			<path d="M1014.3,757.6H385.7c-15.8,0-28.6-12.8-28.6-28.6v-35.9c0-1.2,1-2.1,2.1-2.1h681.4c1.2,0,2.1,1,2.1,2.1V729
				C1042.8,744.7,1030,757.6,1014.3,757.6z M361.5,695.2V729c0,13.4,10.9,24.3,24.3,24.3h628.5c13.4,0,24.3-10.9,24.3-24.3v-33.7
				H361.5z"/>
		</g>
		<g>
			<path fill="#F1F2F2" d="M1040.7,291.4c0-14.6-11.8-26.4-26.4-26.4H385.7c-14.6,0-26.4,11.8-26.4,26.4v401.7h681.4V291.4z"/>
			<path d="M1040.7,695.2H359.3c-1.2,0-2.1-1-2.1-2.1V291.4c0-15.8,12.8-28.6,28.6-28.6h628.5c15.8,0,28.6,12.8,28.6,28.6v401.7
				C1042.8,694.3,1041.9,695.2,1040.7,695.2z M361.5,690.9h677.1V291.4c0-13.4-10.9-24.3-24.3-24.3H385.7
				c-13.4,0-24.3,10.9-24.3,24.3V690.9z"/>
		</g>
		<g>
			<rect x="388.5" y="298.7" fill="#625B7D" width="623.1" height="366.3"/>
			<path d="M1011.5,667.2H388.5c-1.2,0-2.1-1-2.1-2.1V298.7c0-1.2,1-2.1,2.1-2.1h623.1c1.2,0,2.1,1,2.1,2.1V665
				C1013.7,666.2,1012.7,667.2,1011.5,667.2z M390.6,662.9h618.8v-362H390.6V662.9z"/>
		</g>
		<g>
			<path fill="#F1F2F2" d="M711.1,724.3c0,6.2-5,11.1-11.1,11.1c-6.2,0-11.1-5-11.1-11.1s5-11.1,11.1-11.1
				C706.2,713.1,711.1,718.1,711.1,724.3z"/>
			<path d="M700,737.5c-7.3,0-13.3-6-13.3-13.3s6-13.3,13.3-13.3c7.3,0,13.3,6,13.3,13.3S707.3,737.5,700,737.5z M700,715.3
				c-5,0-9,4-9,9s4,9,9,9c5,0,9-4,9-9S705,715.3,700,715.3z"/>
		</g>
		<g>
			<rect x="538.2" y="454.2" fill="#E6E7E8" width="341.3" height="210.9"/>
			<path d="M879.5,667.2H538.2c-1.2,0-2.1-1-2.1-2.1V454.2c0-1.2,1-2.1,2.1-2.1h341.3c1.2,0,2.1,1,2.1,2.1V665
				C881.6,666.2,880.7,667.2,879.5,667.2z M540.4,662.9h337V456.3h-337V662.9z"/>
		</g>
		<g>
			<g>
				<polygon fill="#FFF9CE" points="512.5,363.4 488.2,469.8 513.9,469.8 543.3,469.8 543.4,469.8 546.2,453.1 561.6,363.4 				"/>
				<path d="M543.4,471.9h-55.2c-0.7,0-1.3-0.3-1.7-0.8c-0.4-0.5-0.6-1.2-0.4-1.8l24.3-106.3c0.2-1,1.1-1.7,2.1-1.7h49.1
					c0.6,0,1.2,0.3,1.6,0.8c0.4,0.5,0.6,1.1,0.5,1.7l-18.2,106.3C545.3,471.2,544.4,471.9,543.4,471.9z M490.9,467.6h50.7l17.5-102
					h-44.8L490.9,467.6z"/>
			</g>
			<g>
				<polygon fill="#FF6C64" points="561.6,363.4 546.2,453.1 543.4,469.8 543.4,469.8 598.5,469.8 598.5,469.8 600.4,453.1 
					610.7,363.4 				"/>
				<path d="M598.5,471.9h-55.1c-0.6,0-1.3-0.3-1.7-0.8c-0.4-0.5-0.6-1.1-0.5-1.7l18.2-106.3c0.2-1,1.1-1.8,2.1-1.8h49.1
					c0.6,0,1.2,0.3,1.6,0.7c0.4,0.5,0.6,1.1,0.5,1.7L600.7,470C600.5,471.1,599.6,471.9,598.5,471.9z M545.9,467.6h50.7l11.6-102
					h-44.9L545.9,467.6z"/>
			</g>
			<g>
				<polygon fill="#FFF9CE" points="610.7,363.4 600.4,453.1 598.5,469.8 598.6,469.8 653.6,469.8 653.7,469.8 654.7,453.1 
					659.8,363.4 				"/>
				<path d="M653.7,471.9h-55.1c-0.6,0-1.2-0.3-1.6-0.7c-0.4-0.5-0.6-1.1-0.5-1.7l12.1-106.3c0.1-1.1,1-1.9,2.1-1.9h49.1
					c0.6,0,1.2,0.2,1.6,0.7c0.4,0.4,0.6,1,0.6,1.6l-6.1,106.3C655.8,471,654.8,471.9,653.7,471.9z M600.9,467.6h50.7l5.8-102h-44.9
					L600.9,467.6z"/>
			</g>
			<g>
				<polygon fill="#FF6C64" points="659.8,363.4 654.7,453.1 653.7,469.8 708.7,469.8 708.8,469.8 708.9,469.8 708.9,453.1 
					708.9,363.4 				"/>
				<path d="M708.9,471.9h-55.2c-0.6,0-1.2-0.2-1.6-0.7c-0.4-0.4-0.6-1-0.6-1.6l6.1-106.3c0.1-1.1,1-2,2.1-2h49.1
					c1.2,0,2.1,1,2.1,2.1v106.3C711,471,710,471.9,708.9,471.9z M656,467.6h50.7v-102h-44.9L656,467.6z"/>
			</g>
			<g>
				<polygon fill="#FFF9CE" points="763.1,453.1 758,363.4 708.9,363.4 708.9,453.1 708.9,469.8 763.8,469.8 763.9,469.8 764,469.8 
									"/>
				<path d="M764,471.9h-55.2c-1.2,0-2.1-1-2.1-2.1V363.4c0-1.2,1-2.1,2.1-2.1H758c1.1,0,2.1,0.9,2.1,2l6.1,106.3
					c0,0.6-0.2,1.2-0.6,1.6C765.2,471.7,764.6,471.9,764,471.9z M711,467.6h50.7l-5.8-102H711V467.6z"/>
			</g>
			<g>
				<polygon fill="#FF6C64" points="817.3,453.1 807,363.4 758,363.4 763.1,453.1 764,469.8 819,469.8 819.1,469.8 819.2,469.8 				
					"/>
				<path d="M819.2,471.9H764c-1.1,0-2.1-0.9-2.1-2l-6.1-106.3c0-0.6,0.2-1.2,0.6-1.6c0.4-0.4,1-0.7,1.6-0.7H807
					c1.1,0,2,0.8,2.1,1.9l12.1,106.3c0.1,0.6-0.1,1.2-0.5,1.7C820.4,471.7,819.8,471.9,819.2,471.9z M766,467.6h50.7l-11.6-102
					h-44.9L766,467.6z"/>
			</g>
			<g>
				<polygon fill="#FFF9CE" points="871.5,453.1 856.1,363.4 807,363.4 817.3,453.1 819.2,469.8 874.1,469.8 874.2,469.8 
					874.4,469.8 				"/>
				<path d="M874.4,471.9h-55.2c-1.1,0-2-0.8-2.1-1.9l-12.1-106.3c-0.1-0.6,0.1-1.2,0.5-1.7c0.4-0.5,1-0.7,1.6-0.7h49.1
					c1,0,1.9,0.8,2.1,1.8l18.2,106.3c0.1,0.6-0.1,1.3-0.5,1.7C875.6,471.6,875,471.9,874.4,471.9z M821.1,467.6h50.7l-17.5-102
					h-44.9L821.1,467.6z"/>
			</g>
			<g>
				<polygon fill="#FF6C64" points="905.2,363.4 856.1,363.4 871.5,453.1 874.4,469.8 903.8,469.8 929.3,469.8 929.5,469.8 				"/>
				<path d="M929.5,471.9h-55.2c-1,0-1.9-0.8-2.1-1.8L854,363.8c-0.1-0.6,0.1-1.3,0.5-1.7c0.4-0.5,1-0.8,1.6-0.8h49.1
					c1,0,1.9,0.7,2.1,1.7l24.3,106.3c0.1,0.6,0,1.3-0.4,1.8C930.8,471.6,930.2,471.9,929.5,471.9z M876.2,467.6h50.7l-23.3-102
					h-44.8L876.2,467.6z"/>
			</g>
			<g>
				<path fill="#FFF9CE" d="M543.3,469.8h-29.4h-25.7c0.4,14.3,11.6,25.9,25.7,26.8c0.6,0,1.3,0.1,1.9,0.1
					c14.8,0,26.8-11.6,27.6-26.2C543.4,470.2,543.3,470,543.3,469.8z"/>
				<path d="M515.8,498.8c-0.7,0-1.3,0-1.9-0.1c-15.5-1.1-27.4-13.5-27.8-28.9c0-0.6,0.2-1.1,0.6-1.6c0.4-0.4,1-0.7,1.5-0.7h55.1
					c1.2,0,2.1,0.9,2.1,2.1c0,0.1,0.1,0.8,0.1,0.9C544.7,486.4,531.7,498.8,515.8,498.8z M490.5,471.9c1.4,12.2,11.1,21.7,23.5,22.5
					c0.7,0.1,1.2,0.1,1.8,0.1c13,0,23.8-9.8,25.3-22.6H490.5z"/>
			</g>
			<g>
				<path fill="#FF8078" d="M543.4,469.8c0,0.2,0,0.5-0.1,0.7c0.7,14.6,12.8,26.2,27.6,26.2c14.8,0,26.8-11.6,27.6-26.2
					c0-0.2,0-0.5-0.1-0.7H543.4z"/>
				<path d="M570.9,498.8c-15.8,0-28.9-12.4-29.7-28.3c0-0.1,0-0.5,0-0.6c0.1-1.1,1.1-2.3,2.2-2.3h55c1.2,0,2.1,0.9,2.1,2.1l0.1,0.7
					C599.9,486.4,586.8,498.8,570.9,498.8z M545.7,471.9c1.4,12.8,12.2,22.6,25.3,22.6c13,0,23.9-9.8,25.3-22.6H545.7z"/>
			</g>
			<g>
				<path fill="#FFF9CE" d="M598.6,469.8c0,0.2,0,0.5-0.1,0.7c0.7,14.6,12.8,26.2,27.6,26.2c14.8,0,26.8-11.6,27.6-26.2
					c0-0.2,0-0.5-0.1-0.7H598.6z"/>
				<path d="M626.1,498.8c-15.9,0-28.9-12.4-29.7-28.3c0-0.1,0-0.5,0-0.6c0-1.2,1-2.3,2.2-2.3h55c1.2,0,2.1,0.9,2.1,2.1l0.1,0.7
					C655,486.4,641.9,498.8,626.1,498.8z M600.8,471.9c1.4,12.8,12.2,22.6,25.3,22.6c13,0,23.8-9.8,25.3-22.6H600.8z"/>
			</g>
			<g>
				<path fill="#FF8078" d="M653.7,469.8c0,0.2-0.1,0.5-0.1,0.7c0.8,14.6,12.8,26.2,27.6,26.2c14.8,0,26.8-11.6,27.6-26.2
					c0-0.2,0-0.5-0.1-0.7H653.7z"/>
				<path d="M681.2,498.8c-15.8,0-28.9-12.4-29.7-28.3c0-0.1,0-0.6,0-0.7c0.1-1.1,1.1-2.3,2.2-2.3h55c1.1,0,2.1,0.9,2.1,2l0.1,0.8
					C710.1,486.4,697.1,498.8,681.2,498.8z M655.9,471.9c1.4,12.8,12.2,22.6,25.3,22.6c13,0,23.8-9.8,25.3-22.6H655.9z"/>
			</g>
			<g>
				<path fill="#FFF9CE" d="M708.9,469.8L708.9,469.8c0,0.2-0.1,0.5-0.1,0.7c0.7,14.6,12.8,26.2,27.6,26.2
					c14.8,0,26.8-11.6,27.6-26.2c0-0.2-0.1-0.5-0.1-0.7H708.9z"/>
				<path d="M736.3,498.8c-15.9,0-28.9-12.4-29.7-28.3c0-0.1,0-0.5,0-0.6c0.1-1.1,1.1-2.3,2.2-2.3h55c1.2,0,2.1,1,2.1,2.1l0.1,0.6
					C765.2,486.4,752.2,498.8,736.3,498.8z M711.1,471.9c1.6,13,12.3,22.6,25.2,22.6c13,0,23.8-9.8,25.3-22.6H711.1z"/>
			</g>
			<g>
				<path fill="#FF8078" d="M764,469.8L764,469.8c-0.1,0.2-0.1,0.5-0.1,0.7c0.8,14.6,12.8,26.2,27.6,26.2
					c14.8,0,26.8-11.6,27.6-26.2c0-0.2,0-0.5,0-0.7H764z"/>
				<path d="M791.5,498.8c-15.8,0-28.9-12.4-29.7-28.3c0-0.1,0-0.4,0-0.6c0-1.2,1-2.4,2.2-2.4h55c1.2,0,2.1,0.9,2.1,2.1l0.1,0.7
					C820.4,486.4,807.3,498.8,791.5,498.8z M766.2,471.9c1.4,12.8,12.2,22.6,25.3,22.6c13,0,23.8-9.8,25.3-22.6H766.2z"/>
			</g>
			<g>
				<path fill="#FFF9CE" d="M819.2,469.8h-0.1c0,0.2,0,0.5-0.1,0.7c0.8,14.6,12.8,26.2,27.6,26.2c14.8,0,26.8-11.6,27.6-26.2
					c0-0.2-0.1-0.5-0.1-0.7H819.2z"/>
				<path d="M846.6,498.8c-15.8,0-28.9-12.4-29.7-28.3c0-0.1,0-0.5,0-0.6c0.1-1.1,1.1-2.3,2.2-2.3h55c1.2,0,2.1,0.9,2.1,2.1
					c0,0.1,0.1,0.8,0.1,0.9C875.5,486.4,862.4,498.8,846.6,498.8z M821.3,471.9c1.4,12.8,12.2,22.6,25.3,22.6
					c13,0,23.8-9.8,25.3-22.6H821.3z"/>
			</g>
			<g>
				<path fill="#FF8078" d="M903.8,469.8h-29.5h-0.2c0,0.2,0,0.5,0,0.7c0.7,14.6,12.8,26.2,27.6,26.2c0.7,0,1.4-0.1,2.1-0.1
					c14-1.1,25.2-12.6,25.5-26.8H903.8z"/>
				<path d="M901.7,498.8c-15.8,0-28.9-12.4-29.7-28.3c0-0.1,0-0.5,0-0.6c0.1-1.1,1-2.4,2.2-2.4h55.1c0.6,0,1.1,0.2,1.5,0.7
					c0.4,0.4,0.6,1,0.6,1.6c-0.4,15.3-12.2,27.7-27.5,28.9C903.2,498.8,902.5,498.8,901.7,498.8z M876.4,471.9
					c1.4,12.8,12.2,22.6,25.3,22.6c0.6,0,1.3,0,1.9-0.1c12.3-0.9,22-10.4,23.4-22.5H876.4z"/>
			</g>
		</g>
		<g>
			<rect x="561.6" y="527.9" fill="#BCBEC0" width="84.7" height="137.1"/>
			<path d="M646.3,667.2h-84.7c-1.2,0-2.1-1-2.1-2.1V527.9c0-1.2,1-2.1,2.1-2.1h84.7c1.2,0,2.1,1,2.1,2.1V665
				C648.4,666.2,647.4,667.2,646.3,667.2z M563.7,662.9h80.4V530h-80.4V662.9z"/>
		</g>
		<g>
			<rect x="577.9" y="539.9" fill="#CBEEFF" width="52.1" height="56.6"/>
			<path d="M630,598.6h-52.1c-1.2,0-2.1-1-2.1-2.1v-56.6c0-1.2,1-2.1,2.1-2.1H630c1.2,0,2.1,1,2.1,2.1v56.6
				C632.1,597.6,631.2,598.6,630,598.6z M580,594.3h47.8V542H580V594.3z"/>
		</g>
		<g>
			<rect x="675.4" y="527.9" fill="#CBEEFF" width="171.2" height="93.5"/>
			<path d="M846.6,623.5H675.4c-1.2,0-2.1-1-2.1-2.1v-93.5c0-1.2,1-2.1,2.1-2.1h171.2c1.2,0,2.1,1,2.1,2.1v93.5
				C848.7,622.5,847.8,623.5,846.6,623.5z M677.6,619.2h166.9V530H677.6V619.2z"/>
		</g>
		<g>
			<path fill="#FF6C64" d="M968.1,620.2H859.4l-35.3-26.7v26.7h-6.6c-11.4,0-20.7,9.3-20.7,20.7v51.6c0,11.4,9.3,20.7,20.7,20.7
				h150.6c11.4,0,20.7-9.3,20.7-20.7v-51.6C988.8,629.4,979.5,620.2,968.1,620.2z"/>
			<path d="M968.1,715.3H817.5c-12.6,0-22.8-10.2-22.8-22.8v-51.6c0-12.6,10.2-22.8,22.8-22.8h4.4v-24.5c0-0.8,0.5-1.6,1.2-1.9
				c0.7-0.4,1.6-0.3,2.3,0.2l34.7,26.2h108c12.6,0,22.8,10.2,22.8,22.8v51.6C990.9,705,980.7,715.3,968.1,715.3z M817.5,622.3
				c-10.2,0-18.5,8.3-18.5,18.5v51.6c0,10.2,8.3,18.5,18.5,18.5h150.6c10.2,0,18.5-8.3,18.5-18.5v-51.6c0-10.2-8.3-18.5-18.5-18.5
				H859.4c-0.5,0-0.9-0.2-1.3-0.4l-31.8-24.1v22.4c0,1.2-1,2.1-2.1,2.1H817.5z"/>
		</g>
		<g>
			<g>
				<path fill="#FFFFFF" d="M818.9,645.5h15.5c10.1,0,15.7,5.5,15.7,12.8c0,3.6-1.9,7.6-5.7,9.3c4.6,1.4,7.7,5.4,7.7,10.2
					c0,8.1-5.1,12.5-16.9,12.5h-16.3V645.5z M834.1,653.1h-6v11.3h6c5,0,6.8-2.1,6.8-5.7C840.9,655.2,839.1,653.1,834.1,653.1z
					 M828.1,672.1v10.4h7.9c4.9,0,6.6-1.9,6.6-5.2c0-3.3-1.8-5.2-6.6-5.2H828.1z"/>
				<path d="M835.3,692.3h-16.3c-1.2,0-2.1-1-2.1-2.1v-44.7c0-1.2,1-2.1,2.1-2.1h15.5c10.7,0,17.9,6,17.9,14.9c0,3.5-1.3,6.7-3.6,9
					c3.5,2.3,5.7,6.2,5.7,10.5C854.3,687.4,847.9,692.3,835.3,692.3z M821.1,688h14.2c13.1,0,14.8-5.5,14.8-10.3
					c0-3.7-2.5-7-6.2-8.1c-0.9-0.3-1.5-1-1.5-1.9c-0.1-0.9,0.4-1.7,1.3-2.1c3.1-1.4,4.4-4.7,4.4-7.4c0-6.6-5.2-10.6-13.6-10.6h-13.4
					V688z M836,684.7h-7.9c-1.2,0-2.1-1-2.1-2.1v-10.4c0-1.2,1-2.1,2.1-2.1h7.9c7.7,0,8.8,4.6,8.8,7.4
					C844.8,680.1,843.7,684.7,836,684.7z M830.3,680.4h5.8c4.5,0,4.5-1.7,4.5-3c0-1.3,0-3.1-4.5-3.1h-5.8V680.4z M834.1,666.6h-6
					c-1.2,0-2.1-1-2.1-2.1v-11.3c0-1.2,1-2.1,2.1-2.1h6c7.4,0,9,4.2,9,7.8C843.1,661.7,841.9,666.6,834.1,666.6z M830.3,662.3h3.9
					c4.3,0,4.7-1.7,4.7-3.5c0-1.9-0.4-3.5-4.7-3.5h-3.9V662.3z"/>
			</g>
			<g>
				<path fill="#FFFFFF" d="M872.3,671.3v-25.8h9.2v26.4c0,7.9,4.6,11.2,9.6,11.2c5,0,9.6-3.3,9.6-11.2v-26.4h9.2v25.8
					c0,13.5-8.6,19.7-18.8,19.7C880.8,690.9,872.3,684.8,872.3,671.3z"/>
				<path d="M891.1,693.1c-12.7,0-20.9-8.6-20.9-21.8v-25.8c0-1.2,1-2.1,2.1-2.1h9.2c1.2,0,2.1,1,2.1,2.1v26.4c0,5.7,2.8,9,7.4,9
					c4.6,0,7.4-3.4,7.4-9v-26.4c0-1.2,1-2.1,2.1-2.1h9.2c1.2,0,2.1,1,2.1,2.1v25.8C912,684.5,903.8,693.1,891.1,693.1z M874.4,647.6
					v23.7c0,11,6.2,17.5,16.6,17.5c10.4,0,16.6-6.5,16.6-17.5v-23.7h-4.9v24.2c0,9.8-6.3,13.3-11.7,13.3c-5.4,0-11.7-3.5-11.7-13.3
					v-24.2H874.4z"/>
			</g>
			<g>
				<path fill="#FFFFFF" d="M946,690.2v-13.7l-16.7-31h10.1l11.2,22l11.2-22H972l-16.7,31v13.7H946z"/>
				<path d="M955.2,692.3H946c-1.2,0-2.1-1-2.1-2.1v-13.1l-16.5-30.6c-0.4-0.7-0.3-1.5,0-2.1c0.4-0.6,1.1-1,1.8-1h10.1
					c0.8,0,1.5,0.5,1.9,1.2l9.3,18.2l9.3-18.2c0.4-0.7,1.1-1.2,1.9-1.2H972c0.8,0,1.5,0.4,1.8,1c0.4,0.7,0.4,1.5,0,2.1l-16.5,30.6
					v13.1C957.4,691.4,956.4,692.3,955.2,692.3z M948.2,688h4.9v-11.5c0-0.4,0.1-0.7,0.3-1l15-27.9h-5.2l-10.6,20.8
					c-0.7,1.4-3.1,1.4-3.8,0l-10.6-20.8h-5.2l15,27.9c0.2,0.3,0.3,0.7,0.3,1V688z"/>
			</g>
		</g>
		<g>
			<polygon fill="#939598" points="770,755.4 700,755.4 700,755.4 630,755.4 603.9,825.7 700,825.7 700,825.7 796.1,825.7 			"/>
			<path d="M796.1,827.9H603.9c-0.7,0-1.4-0.3-1.8-0.9c-0.4-0.6-0.5-1.3-0.3-2l26.1-70.3c0.3-0.8,1.1-1.4,2-1.4h140
				c0.9,0,1.7,0.6,2,1.4l26.1,70.3c0.2,0.7,0.2,1.4-0.3,2C797.4,827.5,796.8,827.9,796.1,827.9z M607,823.6h186l-24.5-66h-137
				L607,823.6z"/>
		</g>
		<g>
			<path fill="#BCBEC0" d="M827.4,846.6c0,11.5-9.3,20.9-20.9,20.9H593.5c-11.5,0-20.9-9.3-20.9-20.9l0,0c0-11.5,9.3-20.9,20.9-20.9
				h213.1C818.1,825.7,827.4,835.1,827.4,846.6L827.4,846.6z"/>
			<path d="M806.5,869.6H593.5c-12.7,0-23-10.3-23-23c0-12.7,10.3-23,23-23h213.1c12.7,0,23,10.3,23,23
				C829.6,859.3,819.2,869.6,806.5,869.6z M593.5,827.9c-10.3,0-18.7,8.4-18.7,18.7c0,10.3,8.4,18.7,18.7,18.7h213.1
				c10.3,0,18.7-8.4,18.7-18.7c0-10.3-8.4-18.7-18.7-18.7H593.5z"/>
		</g>
	</g>
	<g>
		<path d="M891.1,869.6h-84.5c-1.2,0-2.1-1-2.1-2.1c0-1.2,1-2.1,2.1-2.1h84.5c1.2,0,2.1,1,2.1,2.1
			C893.2,868.6,892.2,869.6,891.1,869.6z"/>
	</g>
	<g>
		<path d="M963.5,869.6h-48c-1.2,0-2.1-1-2.1-2.1c0-1.2,1-2.1,2.1-2.1h48c1.2,0,2.1,1,2.1,2.1C965.7,868.6,964.7,869.6,963.5,869.6z
			"/>
	</g>
	<g>
		<path d="M593.5,869.6H488.2c-1.2,0-2.1-1-2.1-2.1c0-1.2,1-2.1,2.1-2.1h105.3c1.2,0,2.1,1,2.1,2.1
			C595.6,868.6,594.6,869.6,593.5,869.6z"/>
	</g>
	<g>
		<path d="M619.8,895.7H427.9c-1.2,0-2.1-1-2.1-2.1c0-1.2,1-2.1,2.1-2.1h191.9c1.2,0,2.1,1,2.1,2.1
			C621.9,894.8,621,895.7,619.8,895.7z"/>
	</g>
	<g>
		<path d="M996.5,920.1H688.9c-1.2,0-2.1-1-2.1-2.1c0-1.2,1-2.1,2.1-2.1h307.6c1.2,0,2.1,1,2.1,2.1
			C998.6,919.1,997.7,920.1,996.5,920.1z"/>
	</g>
	<g>
		<path fill="#625B7D" d="M816.2,150.3c0,40.8-33,73.8-73.8,73.8c-40.8,0-73.8-33-73.8-73.8c0-40.8,33-73.8,73.8-73.8
			C783.2,76.5,816.2,109.5,816.2,150.3z"/>
		<path d="M742.4,226.2c-41.9,0-76-34.1-76-76c0-41.9,34.1-76,76-76c41.9,0,76,34.1,76,76C818.4,192.1,784.3,226.2,742.4,226.2z
			 M742.4,78.6c-39.5,0-71.7,32.1-71.7,71.7c0,39.5,32.1,71.7,71.7,71.7c39.5,0,71.7-32.1,71.7-71.7
			C814.1,110.7,782,78.6,742.4,78.6z"/>
	</g>
	<g>
		<g>
			<polygon fill="#FFFFFF" points="748,198 692.1,142 713.3,120.8 748,155.4 814.5,89 835.7,110.3 			"/>
			<path d="M748,200.1c-0.6,0-1.1-0.2-1.5-0.6l-55.9-56c-0.8-0.8-0.8-2.2,0-3l21.3-21.3c0.8-0.8,2.2-0.8,3,0l33.2,33.2l64.9-64.9
				c0.8-0.8,2.2-0.8,3,0l21.3,21.3c0.8,0.8,0.8,2.2,0,3l-87.7,87.7C749.1,199.9,748.6,200.1,748,200.1z M695.1,142l52.9,52.9
				l84.6-84.7l-18.2-18.2L749.5,157c-0.8,0.8-2.2,0.8-3,0l-33.2-33.2L695.1,142z"/>
		</g>
	</g>
	<g>
		<g>
			<path fill="#03BAFF" d="M1068.6,138.5c1.1-4.1,1.6-8.5,1.6-12.9c0-28.6-23.2-51.8-51.8-51.8c-23.5,0-43.3,15.6-49.6,37
				c-3.3-1.1-6.8-1.7-10.5-1.7c-16.8,0-30.6,12.5-32.8,28.6c-19.3,1.7-34.5,17.9-34.5,37.7c0,20.9,17,37.9,37.9,37.9h131.1
				c20.9,0,41.4-17,41.4-37.9C1101.4,157.3,1086.2,142.2,1068.6,138.5z"/>
			<path d="M1060.1,215.4H928.9c-22.1,0-40-18-40-40c0-20.3,14.8-37.1,34.8-39.7c3.1-16.6,17.7-28.8,34.7-28.8
				c3.1,0,6.1,0.4,9.1,1.2c7.4-21.6,28.1-36.5,51-36.5c29.7,0,53.9,24.2,53.9,53.9c0,3.8-0.4,7.7-1.2,11.4
				c18.6,5,32.4,21.2,32.4,38.5C1103.6,196.7,1083.3,215.4,1060.1,215.4z M958.4,111.2c-15.4,0-28.6,11.5-30.7,26.8
				c-0.1,1-0.9,1.8-1.9,1.8c-18.5,1.7-32.5,17-32.5,35.6c0,19.7,16,35.7,35.7,35.7h131.1c20.5,0,39.2-17,39.2-35.7
				c0-16-13.4-31-31.2-34.8c-0.6-0.1-1.1-0.5-1.4-1c-0.3-0.5-0.4-1.1-0.3-1.7c1-4,1.6-8.2,1.6-12.4c0-27.4-22.3-49.6-49.6-49.6
				c-21.8,0-41.3,14.6-47.6,35.5c-0.2,0.6-0.5,1-1.1,1.3c-0.5,0.3-1.1,0.3-1.7,0.1C965,111.7,961.7,111.2,958.4,111.2z"/>
		</g>
		<g>
			<path d="M1007.2,192.1H861.1c-1.2,0-2.1-1-2.1-2.1s1-2.1,2.1-2.1h146.1c1.2,0,2.1,1,2.1,2.1S1008.4,192.1,1007.2,192.1z"/>
		</g>
		<g>
			<path d="M1057.7,192.1h-21.5c-1.2,0-2.1-1-2.1-2.1s1-2.1,2.1-2.1h21.5c1.2,0,2.1,1,2.1,2.1S1058.9,192.1,1057.7,192.1z"/>
		</g>
	</g>
	<g>
		<path fill="#03BAFF" d="M165.1,363.4c0,26.9-21.8,48.7-48.7,48.7c-26.9,0-48.7-21.8-48.7-48.7c0-26.9,21.8-48.7,48.7-48.7
			C143.3,314.7,165.1,336.5,165.1,363.4z"/>
		<path d="M116.4,414.3c-28,0-50.8-22.8-50.8-50.8s22.8-50.8,50.8-50.8c28,0,50.8,22.8,50.8,50.8S144.4,414.3,116.4,414.3z
			 M116.4,316.9c-25.7,0-46.5,20.9-46.5,46.5S90.7,410,116.4,410c25.7,0,46.5-20.9,46.5-46.5S142.1,316.9,116.4,316.9z"/>
	</g>
	<g>
		<path fill="#FFF9CE" d="M294.7,539.9c0,47.5-38.5,85.9-85.9,85.9c-47.5,0-85.9-38.5-85.9-85.9c0-47.5,38.5-85.9,85.9-85.9
			C256.2,454,294.7,492.4,294.7,539.9z"/>
		<path d="M208.7,628c-48.6,0-88.1-39.5-88.1-88.1s39.5-88.1,88.1-88.1c48.6,0,88.1,39.5,88.1,88.1S257.3,628,208.7,628z
			 M208.7,456.1c-46.2,0-83.8,37.6-83.8,83.8s37.6,83.8,83.8,83.8c46.2,0,83.8-37.6,83.8-83.8S254.9,456.1,208.7,456.1z"/>
	</g>
	<g>
		<g>
			<path fill="#FFFFFF" d="M101.8,352c0-6.2,3.7-10.8,10.6-12v-7.1h7.2v6.9c3.3,0.4,6.5,1.5,9,3l-2.9,7.4c-2.3-1.6-5.5-2.5-8.5-2.5
				c-4.1,0-6.1,1.5-6.1,3.8c0,2.5,1.7,4.1,7.9,6.9c8,3.6,11.8,7.7,11.8,14.5c0,6.9-3.9,11.8-11.3,13.3v7.2h-7.2v-6.8
				c-4.1-0.3-8.3-1.6-11.6-3.6l2.9-7.5c2.9,2,6.9,3.2,10.4,3.2c4.6,0,7.4-1.8,7.4-5c0-3.3-2.4-5.2-8-7.7
				C104.4,362.1,101.8,357.9,101.8,352z"/>
			<path d="M119.6,395.6h-7.2c-1.2,0-2.1-1-2.1-2.1v-4.9c-3.8-0.6-7.5-1.8-10.6-3.7c-0.9-0.5-1.3-1.6-0.9-2.6l2.9-7.5
				c0.2-0.6,0.7-1.1,1.4-1.3c0.6-0.2,1.3-0.1,1.9,0.3c2.5,1.7,6,2.8,9.2,2.8c1.6,0,5.2-0.3,5.2-2.8c0-1.9-1-3.2-6.7-5.7
				c-9.2-4-13-8.6-13-16c0-6.9,3.9-11.9,10.6-13.7v-5.3c0-1.2,1-2.1,2.1-2.1h7.2c1.2,0,2.1,1,2.1,2.1v5.1c2.9,0.6,5.7,1.6,8,3
				c0.9,0.5,1.3,1.6,0.9,2.6l-2.9,7.4c-0.2,0.6-0.7,1.1-1.4,1.3c-0.6,0.2-1.3,0.1-1.8-0.3c-2-1.4-4.8-2.2-7.3-2.2
				c-1.5,0-3.9,0.2-3.9,1.7c0,1.1,0.5,2.1,6.6,4.9c6.4,2.9,13,7.2,13,16.5c0,7.5-4.1,12.9-11.3,15v5.5
				C121.7,394.6,120.8,395.6,119.6,395.6z M114.5,391.3h2.9v-5c0-1,0.7-1.9,1.7-2.1c6.3-1.3,9.6-5.1,9.6-11.2c0-5.6-2.8-9-10.5-12.5
				c-6.2-2.8-9.1-4.9-9.1-8.9c0-1.4,0.6-6,8.2-6c2.5,0,5.1,0.6,7.3,1.6l1.3-3.3c-2-0.9-4.3-1.6-6.6-1.9c-1.1-0.1-1.9-1.1-1.9-2.1
				v-4.7h-2.9v4.9c0,1-0.7,1.9-1.8,2.1c-5.7,1-8.8,4.5-8.8,9.9c0,4.6,1.7,8.3,10.4,12c4.9,2.1,9.3,4.5,9.3,9.6
				c0,3.4-2.5,7.1-9.5,7.1c-3.1,0-6.4-0.8-9.3-2.2l-1.3,3.4c2.7,1.3,5.8,2.2,9.1,2.4c1.1,0.1,2,1,2,2.1V391.3z"/>
		</g>
	</g>
	<g>
		<g>
			<path fill="#FFFFFF" d="M183,522.1c0-11.6,7-20,19.7-22.3v-13.1h13.4v12.8c6.1,0.8,12,2.7,16.8,5.6l-5.3,13.8
				c-4.4-2.9-10.2-4.7-15.7-4.7c-7.6,0-11.3,2.8-11.3,7.1c0,4.7,3.1,7.6,14.6,12.8c14.8,6.8,21.9,14.3,21.9,27
				c0,12.9-7.3,22-21.1,24.8v13.4h-13.4v-12.6c-7.7-0.6-15.4-3-21.5-6.7l5.3-14c5.4,3.8,12.8,5.9,19.4,5.9c8.5,0,13.7-3.4,13.7-9.3
				c0-6.2-4.4-9.7-14.8-14.3C187.9,540.9,183,533.1,183,522.1z"/>
			<path d="M216.1,601.4h-13.4c-1.2,0-2.1-1-2.1-2.1v-10.7c-7.5-0.9-14.7-3.3-20.5-6.8c-0.9-0.5-1.3-1.6-0.9-2.6l5.3-14
				c0.2-0.6,0.7-1.1,1.4-1.3c0.6-0.2,1.3-0.1,1.9,0.3c5,3.4,11.9,5.6,18.2,5.6c3.5,0,11.5-0.7,11.5-7.1c0-4.9-3.3-7.8-13.5-12.3
				c-16.3-7.1-23-15.2-23-28c0-12.3,7.3-21.2,19.7-24.1v-11.4c0-1.2,1-2.1,2.1-2.1h13.4c1.2,0,2.1,1,2.1,2.1v11
				c5.8,1,11.3,2.9,15.8,5.6c0.9,0.5,1.3,1.6,0.9,2.6l-5.3,13.8c-0.2,0.6-0.7,1.1-1.4,1.3c-0.6,0.2-1.3,0.1-1.8-0.3
				c-4.1-2.7-9.5-4.4-14.5-4.4c-4.2,0-9.1,0.9-9.1,5c0,3.3,1.9,5.6,13.4,10.9c16.4,7.5,23.2,15.9,23.2,28.9
				c0,13.6-7.6,23.1-21.1,26.5v11.6C218.3,600.4,217.3,601.4,216.1,601.4z M204.9,597.1h9.1v-11.2c0-1,0.7-1.9,1.7-2.1
				c12.5-2.5,19.3-10.6,19.3-22.7c0-11.2-5.8-18.2-20.6-25c-11-5-15.9-8.4-15.9-14.8c0-2.8,1.3-9.3,13.4-9.3
				c4.9,0,10.2,1.4,14.6,3.7l3.7-9.7c-4.2-2.2-9.2-3.7-14.4-4.4c-1.1-0.1-1.9-1.1-1.9-2.1v-10.7h-9.1v11c0,1-0.7,1.9-1.8,2.1
				c-11.4,2.1-18,9.4-18,20.2c0,9.1,3.5,16.7,20.4,24.1c10.2,4.5,16.1,8.5,16.1,16.3c0,7-6.1,11.4-15.8,11.4
				c-6.2,0-12.9-1.8-18.3-4.9l-3.7,9.9c5.5,3,12.2,5,19.1,5.5c1.1,0.1,2,1,2,2.1V597.1z"/>
		</g>
	</g>
	<g>
		<g>
			<path fill="#FF6C64" d="M190.9,73.7c-34.5,0-62.6,28-62.6,62.6c0,13.3,4.1,25.5,11.2,35.7l51.4,85.7l51.4-85.7
				c7-10.1,11.2-22.4,11.2-35.7C253.5,101.7,225.5,73.7,190.9,73.7z M190.9,171.5c-17.7,0-32-14.3-32-32c0-17.7,14.3-32,32-32
				c17.7,0,32,14.3,32,32C222.9,157.2,208.6,171.5,190.9,171.5z"/>
			<path d="M190.9,259.8L190.9,259.8c-0.8,0-1.5-0.4-1.8-1l-51.4-85.7c-7.5-10.8-11.5-23.5-11.5-36.8c0-35.7,29-64.7,64.7-64.7
				c35.7,0,64.7,29,64.7,64.7c0,13.3-4,26-11.5,36.9l-51.3,85.6C192.4,259.4,191.7,259.8,190.9,259.8z M190.9,75.9
				c-33.3,0-60.4,27.1-60.4,60.4c0,12.4,3.7,24.3,10.8,34.4l49.6,82.8l49.5-82.7c7.1-10.3,10.9-22.2,10.9-34.6
				C251.3,103,224.2,75.9,190.9,75.9z M190.9,173.7c-18.8,0-34.1-15.3-34.1-34.1c0-18.8,15.3-34.1,34.1-34.1
				c18.8,0,34.1,15.3,34.1,34.1C225.1,158.3,209.8,173.7,190.9,173.7z M190.9,109.7c-16.4,0-29.8,13.4-29.8,29.8
				c0,16.5,13.4,29.8,29.8,29.8c16.4,0,29.8-13.4,29.8-29.8C220.8,123.1,207.4,109.7,190.9,109.7z"/>
		</g>
	</g>
	<g>
		<g>
			<path fill="#F1F2F2" d="M154.3,759.9h125.4c19,0,34.4,15.4,34.4,34.5v53.1c0,19-15.4,34.5-34.4,34.5H175.5L150,907.4v-25.8
				c-17-2.1-30.2-16.6-30.2-34.2v-53.1C119.9,775.3,135.3,759.9,154.3,759.9z"/>
			<path d="M150,909.6c-0.3,0-0.6-0.1-0.8-0.2c-0.8-0.3-1.3-1.1-1.3-2v-23.9c-17.3-3.1-30.2-18.2-30.2-36v-53.1
				c0-20.2,16.4-36.6,36.6-36.6h125.4c20.2,0,36.6,16.4,36.6,36.6v53.1c0,20.2-16.4,36.6-36.6,36.6H176.4l-24.8,24.9
				C151.1,909.3,150.6,909.6,150,909.6z M154.3,762.1c-17.8,0-32.3,14.5-32.3,32.3v53.1c0,16.2,12.2,30,28.3,32
				c1.1,0.1,1.9,1,1.9,2.1v20.6l21.8-21.8c0.4-0.4,0.9-0.6,1.5-0.6h104.2c17.8,0,32.3-14.5,32.3-32.3v-53.1
				c0-17.8-14.5-32.3-32.3-32.3H154.3z"/>
		</g>
		<g>
			<path d="M255.1,848.7h-19.2c-1.2,0-2.1-1-2.1-2.1c0-1.2,1-2.1,2.1-2.1h19.2c1.2,0,2.1,1,2.1,2.1
				C257.2,847.7,256.3,848.7,255.1,848.7z"/>
		</g>
		<g>
			<path d="M194.1,848.7h-45.1c-1.2,0-2.1-1-2.1-2.1c0-1.2,1-2.1,2.1-2.1h45.1c1.2,0,2.1,1,2.1,2.1
				C196.2,847.7,195.3,848.7,194.1,848.7z"/>
		</g>
		<g>
			<path d="M286.2,800.4h-50.3c-1.2,0-2.1-1-2.1-2.1c0-1.2,1-2.1,2.1-2.1h50.3c1.2,0,2.1,1,2.1,2.1
				C288.4,799.4,287.4,800.4,286.2,800.4z"/>
		</g>
		<g>
			<path d="M286.2,824.3H148.9c-1.2,0-2.1-1-2.1-2.1c0-1.2,1-2.1,2.1-2.1h137.3c1.2,0,2.1,1,2.1,2.1
				C288.4,823.3,287.4,824.3,286.2,824.3z"/>
		</g>
		<g>
			<path fill="#FF6C64" d="M214.1,673.7h-109c-20.6,0-37.4,16.7-37.4,37.4v57.6c0,20.6,16.7,37.4,37.4,37.4h86l27.6,27.6v-28
				c18.4-2.3,32.7-18,32.7-37v-57.6C251.4,690.4,234.7,673.7,214.1,673.7z"/>
			<path d="M218.7,835.8c-0.6,0-1.1-0.2-1.5-0.6l-27-27h-85.1c-21.8,0-39.5-17.7-39.5-39.5v-57.6c0-21.8,17.7-39.5,39.5-39.5h109
				c21.8,0,39.5,17.7,39.5,39.5v57.6c0,19.2-13.9,35.6-32.7,38.9v26.1c0,0.9-0.5,1.7-1.3,2C219.3,835.8,219,835.8,218.7,835.8z
				 M105.1,675.9c-19.4,0-35.2,15.8-35.2,35.2v57.6c0,19.4,15.8,35.2,35.2,35.2h86c0.6,0,1.1,0.2,1.5,0.6l24,24v-22.8
				c0-1.1,0.8-2,1.9-2.1c17.6-2.2,30.8-17.2,30.8-34.9v-57.6c0-19.4-15.8-35.2-35.2-35.2H105.1z"/>
		</g>
		<g>
			<rect x="95" y="712.6" fill="#FFFFFF" width="129.2" height="17.1"/>
			<path d="M224.2,731.9H95c-1.2,0-2.1-1-2.1-2.1v-17.1c0-1.2,1-2.1,2.1-2.1h129.2c1.2,0,2.1,1,2.1,2.1v17.1
				C226.3,730.9,225.4,731.9,224.2,731.9z M97.1,727.6H222v-12.8H97.1V727.6z"/>
		</g>
		<g>
			<rect x="95" y="748.4" fill="#FFFFFF" width="129.2" height="17.1"/>
			<path d="M224.2,767.7H95c-1.2,0-2.1-1-2.1-2.1v-17.1c0-1.2,1-2.1,2.1-2.1h129.2c1.2,0,2.1,1,2.1,2.1v17.1
				C226.3,766.7,225.4,767.7,224.2,767.7z M97.1,763.4H222v-12.8H97.1V763.4z"/>
		</g>
	</g>
	<g>
		<g>
			<g>
				<path fill="#F1F2F2" d="M1319.9,776.7c0-12.1-9.8-21.9-21.8-21.9h-218.5c-12.1,0-21.9,9.8-21.9,21.9v9.2h262.2V776.7z"/>
				<path d="M1319.9,788h-262.2c-1.2,0-2.1-1-2.1-2.1v-9.2c0-13.2,10.8-24,24-24h218.5c13.2,0,24,10.8,24,24v9.2
					C1322.1,787,1321.1,788,1319.9,788z M1059.8,783.7h257.9v-7c0-10.9-8.8-19.7-19.7-19.7h-218.5c-10.9,0-19.7,8.8-19.7,19.7V783.7
					z"/>
			</g>
			<g>
				<path fill="#F1F2F2" d="M1057.7,890c0,12.1,9.8,21.9,21.9,21.9h218.5c12.1,0,21.8-9.8,21.8-21.9v-66.1h-262.2V890z"/>
				<path d="M1298.1,914h-218.5c-13.2,0-24-10.8-24-24v-66.1c0-1.2,1-2.1,2.1-2.1h262.2c1.2,0,2.1,1,2.1,2.1V890
					C1322.1,903.3,1311.3,914,1298.1,914z M1059.8,826.1v64c0,10.9,8.8,19.7,19.7,19.7h218.5c10.9,0,19.7-8.8,19.7-19.7v-64H1059.8z
					"/>
			</g>
			<g>
				<rect x="1057.7" y="785.8" fill="#939598" width="262.2" height="38.1"/>
				<path d="M1319.9,826.1h-262.2c-1.2,0-2.1-1-2.1-2.1v-38.1c0-1.2,1-2.1,2.1-2.1h262.2c1.2,0,2.1,1,2.1,2.1v38.1
					C1322.1,825.1,1321.1,826.1,1319.9,826.1z M1059.8,821.8h257.9V788h-257.9V821.8z"/>
			</g>
		</g>
		<g>
			<path d="M1180.4,848h-99.5c-1.2,0-2.1-1-2.1-2.1s1-2.1,2.1-2.1h99.5c1.2,0,2.1,1,2.1,2.1S1181.6,848,1180.4,848z"/>
		</g>
		<g>
			<path d="M1236,848h-27.8c-1.2,0-2.1-1-2.1-2.1s1-2.1,2.1-2.1h27.8c1.2,0,2.1,1,2.1,2.1S1237.1,848,1236,848z"/>
		</g>
		<g>
			<path d="M1257.3,875.8h-176.3c-1.2,0-2.1-1-2.1-2.1s1-2.1,2.1-2.1h176.3c1.2,0,2.1,1,2.1,2.1S1258.5,875.8,1257.3,875.8z"/>
		</g>
	</g>
	<g>
		<rect x="1089.9" y="665" fill="#03BAFF" width="132" height="25.2"/>
		<path d="M1221.9,692.3h-132c-1.2,0-2.1-1-2.1-2.1V665c0-1.2,1-2.1,2.1-2.1h132c1.2,0,2.1,1,2.1,2.1v25.2
			C1224,691.4,1223.1,692.3,1221.9,692.3z M1092.1,688h127.7v-20.9h-127.7V688z"/>
	</g>
	<g>
		<rect x="1089.9" y="613.2" fill="#03BAFF" width="132" height="25.2"/>
		<path d="M1221.9,640.6h-132c-1.2,0-2.1-1-2.1-2.1v-25.2c0-1.2,1-2.1,2.1-2.1h132c1.2,0,2.1,1,2.1,2.1v25.2
			C1224,639.6,1223.1,640.6,1221.9,640.6z M1092.1,636.3h127.7v-20.9h-127.7V636.3z"/>
	</g>
	<g>
		<rect x="1089.9" y="561.5" fill="#03BAFF" width="132" height="25.2"/>
		<path d="M1221.9,588.8h-132c-1.2,0-2.1-1-2.1-2.1v-25.2c0-1.2,1-2.1,2.1-2.1h132c1.2,0,2.1,1,2.1,2.1v25.2
			C1224,587.8,1223.1,588.8,1221.9,588.8z M1092.1,584.5h127.7v-20.9h-127.7V584.5z"/>
	</g>
	<g>
		<path fill="#FFFFFF" d="M1244.9,420.1c0,8.4-6.8,15.2-15.2,15.2s-15.2-6.8-15.2-15.2c0-8.4,6.8-15.2,15.2-15.2
			S1244.9,411.7,1244.9,420.1z"/>
		<path d="M1229.6,437.5c-9.6,0-17.4-7.8-17.4-17.4s7.8-17.4,17.4-17.4c9.6,0,17.4,7.8,17.4,17.4S1239.2,437.5,1229.6,437.5z
			 M1229.6,407c-7.2,0-13.1,5.9-13.1,13.1c0,7.2,5.9,13.1,13.1,13.1c7.2,0,13.1-5.9,13.1-13.1C1242.7,412.9,1236.9,407,1229.6,407z"
			/>
	</g>
	<g>
		<g>
			<path fill="#FF6C64" d="M1258.6,244.6h-75.8l15.2,63.4h60.5c10.1,0,18.3-8.2,18.3-18.3v-26.8
				C1276.9,252.8,1268.7,244.6,1258.6,244.6z"/>
			<path d="M1258.6,310.1H1198c-1,0-1.9-0.7-2.1-1.6l-15.2-63.4c-0.2-0.6,0-1.3,0.4-1.8c0.4-0.5,1-0.8,1.7-0.8h75.8
				c11.3,0,20.4,9.2,20.4,20.4v26.8C1279,300.9,1269.9,310.1,1258.6,310.1z M1199.7,305.8h58.9c8.9,0,16.1-7.2,16.1-16.1v-26.8
				c0-8.9-7.2-16.1-16.1-16.1h-73.1L1199.7,305.8z"/>
		</g>
		<g>
			<path fill="#FFFFFF" d="M1212.9,326.8c0,7.2-5.8,13-12.9,13c-7.2,0-12.9-5.8-12.9-13c0-7.2,5.8-12.9,12.9-12.9
				C1207.1,313.9,1212.9,319.7,1212.9,326.8z"/>
			<path d="M1199.9,342c-8.3,0-15.1-6.8-15.1-15.1c0-8.3,6.8-15.1,15.1-15.1c8.3,0,15.1,6.8,15.1,15.1
				C1215,335.2,1208.3,342,1199.9,342z M1199.9,316c-6,0-10.8,4.8-10.8,10.8c0,6,4.8,10.8,10.8,10.8c6,0,10.8-4.8,10.8-10.8
				C1210.7,320.9,1205.9,316,1199.9,316z"/>
		</g>
		<g>
			<path fill="#FFFFFF" d="M1271.5,326.8c0,7.2-5.8,13-12.9,13s-12.9-5.8-12.9-13c0-7.2,5.8-12.9,12.9-12.9
				S1271.5,319.7,1271.5,326.8z"/>
			<path d="M1258.6,342c-8.3,0-15.1-6.8-15.1-15.1c0-8.3,6.8-15.1,15.1-15.1c8.3,0,15.1,6.8,15.1,15.1
				C1273.7,335.2,1266.9,342,1258.6,342z M1258.6,316c-6,0-10.8,4.8-10.8,10.8c0,6,4.8,10.8,10.8,10.8c6,0,10.8-4.8,10.8-10.8
				C1269.4,320.9,1264.5,316,1258.6,316z"/>
		</g>
		<g>
			<path d="M1245.6,329h-32.8c-1.2,0-2.1-1-2.1-2.1c0-1.2,1-2.1,2.1-2.1h32.8c1.2,0,2.1,1,2.1,2.1C1247.8,328,1246.8,329,1245.6,329
				z"/>
		</g>
		<g>
			<path d="M1199.9,316c-0.9,0-1.8-0.6-2-1.5l-1.9-6c-0.4-1.1,0.3-2.3,1.4-2.7c1.1-0.4,2.3,0.3,2.7,1.4l1.9,6
				c0.4,1.1-0.3,2.3-1.4,2.7C1200.4,316,1200.1,316,1199.9,316z"/>
		</g>
		<g>
			<path d="M1182.8,246.7c-1.1,0-2-0.8-2.1-1.9c-0.1-0.6-2-12-17.5-10.4c-1.2,0.1-2.2-0.7-2.4-1.9c-0.1-1.2,0.7-2.2,1.9-2.4
				c19.8-2.1,22.2,13.9,22.2,14c0.2,1.2-0.7,2.3-1.8,2.4C1183,246.7,1182.9,246.7,1182.8,246.7z"/>
		</g>
	</g>
	<g>
		<polygon fill="#03BAFF" points="1245.2,183 1245.2,117 1211.8,117 1211.8,183 1196.4,183 1228.5,224.8 1260.6,183 		"/>
		<path d="M1228.5,226.9c-0.7,0-1.3-0.3-1.7-0.8l-32.1-41.8c-0.5-0.6-0.6-1.5-0.2-2.3c0.4-0.7,1.1-1.2,1.9-1.2h13.3V117
			c0-1.2,1-2.1,2.1-2.1h33.4c1.2,0,2.1,1,2.1,2.1v63.9h13.3c0.8,0,1.6,0.5,1.9,1.2c0.4,0.7,0.3,1.6-0.2,2.3l-32.1,41.8
			C1229.8,226.6,1229.2,226.9,1228.5,226.9z M1200.8,185.1l27.7,36.1l27.7-36.1h-11.1c-1.2,0-2.1-1-2.1-2.1v-63.9H1214V183
			c0,1.2-1,2.1-2.1,2.1H1200.8z"/>
	</g>
	<g>
		<path fill="#625B7D" d="M1222.1,433.8c-52.9,0-95.8,42.9-95.8,95.8c0,20.3,6.3,39.1,17.1,54.6l78.7,131.3l78.7-131.3
			c10.8-15.5,17.1-34.3,17.1-54.6C1317.9,476.7,1275,433.8,1222.1,433.8z"/>
		<path d="M1222.1,717.6c-0.8,0-1.5-0.4-1.8-1l-78.7-131.3c-11.4-16.3-17.4-35.6-17.4-55.7c0-54,43.9-97.9,97.9-97.9
			c54,0,97.9,43.9,97.9,97.9c0,20.1-6,39.4-17.5,55.8l-78.6,131.2C1223.5,717.2,1222.8,717.6,1222.1,717.6z M1222.1,435.9
			c-51.6,0-93.6,42-93.6,93.6c0,19.2,5.8,37.6,16.7,53.4l76.9,128.3l76.8-128.2c11-15.9,16.8-34.3,16.8-53.5
			C1315.7,477.9,1273.7,435.9,1222.1,435.9z"/>
	</g>
	<g>
		<g>
			<path fill="#FFFFFF" d="M1253.4,530.9h28.5c0-16.9-7-32.1-18.2-43c-5.6,3.9-11.9,7.1-18.5,9.3
				C1250.4,507.2,1253.4,518.7,1253.4,530.9z"/>
			<path d="M1281.9,533h-28.5c-1.2,0-2.1-1-2.1-2.1c0-11.5-2.7-22.5-8-32.7c-0.3-0.6-0.3-1.2-0.1-1.8c0.2-0.6,0.7-1,1.3-1.2
				c6.4-2.1,12.4-5.2,18-9c0.8-0.6,2-0.5,2.7,0.2c12.2,11.8,18.9,27.6,18.9,44.5C1284.1,532,1283.1,533,1281.9,533z M1255.6,528.7
				h24.2c-0.5-14.3-6.2-27.7-16.3-38.1c-4.8,3.2-9.9,5.7-15.2,7.7C1252.7,507.8,1255.2,518.2,1255.6,528.7z"/>
		</g>
		<g>
			<path fill="#FFFFFF" d="M1245.2,564.5c6.6,2.2,12.9,5.4,18.5,9.3c11.2-10.9,18.2-26.1,18.2-43h-28.5
				C1253.4,543,1250.4,554.4,1245.2,564.5z"/>
			<path d="M1263.7,576c-0.4,0-0.9-0.1-1.2-0.4c-5.5-3.8-11.6-6.9-18-9c-0.6-0.2-1.1-0.7-1.3-1.2c-0.2-0.6-0.2-1.2,0.1-1.8
				c5.3-10.2,8-21.2,8-32.7c0-1.2,1-2.1,2.1-2.1h28.5c1.2,0,2.1,1,2.1,2.1c0,16.9-6.7,32.7-18.9,44.5
				C1264.8,575.8,1264.2,576,1263.7,576z M1248.2,563.3c5.4,2,10.5,4.6,15.2,7.7c10-10.3,15.8-23.7,16.3-38h-24.2
				C1255.2,543.5,1252.7,553.9,1248.2,563.3z"/>
		</g>
		<g>
			<path fill="#FFFFFF" d="M1245.2,497.2c6.6-2.2,12.9-5.4,18.5-9.3c-10.7-10.4-25.4-16.8-41.5-16.9
				C1231.8,477.7,1239.7,486.7,1245.2,497.2z"/>
			<path d="M1245.2,499.3c-0.8,0-1.5-0.4-1.9-1.2c-5.2-10.1-12.9-18.9-22.3-25.4c-0.8-0.5-1.1-1.5-0.8-2.4c0.3-0.9,1.1-1.5,2-1.5
				c0,0,0,0,0,0c16.1,0.1,31.4,6.3,43,17.5c0.5,0.4,0.7,1.1,0.6,1.7c0,0.6-0.4,1.2-0.9,1.6c-5.9,4.1-12.3,7.3-19.1,9.6
				C1245.7,499.3,1245.4,499.3,1245.2,499.3z M1229.1,473.6c6.9,5.9,12.8,13,17.2,21c4.9-1.8,9.6-4.1,14-6.9
				C1251.5,479.8,1240.6,475,1229.1,473.6z"/>
		</g>
		<g>
			<path fill="#FFFFFF" d="M1190.7,530.9h-28.5c0,16.9,7,32.1,18.2,43c5.6-3.9,11.9-7.1,18.5-9.3
				C1193.7,554.4,1190.7,543,1190.7,530.9z"/>
			<path d="M1180.4,576c-0.5,0-1.1-0.2-1.5-0.6c-12.2-11.8-18.9-27.6-18.9-44.5c0-1.2,1-2.1,2.1-2.1h28.5c1.2,0,2.1,1,2.1,2.1
				c0,11.5,2.7,22.5,8,32.7c0.3,0.6,0.3,1.2,0.1,1.8c-0.2,0.6-0.7,1-1.3,1.2c-6.4,2.1-12.5,5.2-18,9
				C1181.3,575.8,1180.9,576,1180.4,576z M1164.4,533c0.5,14.4,6.2,27.7,16.3,38c4.8-3.1,9.9-5.7,15.2-7.7c-4.5-9.4-7-19.8-7.3-30.3
				H1164.4z"/>
		</g>
		<g>
			<path fill="#FFFFFF" d="M1198.9,497.2c-6.6-2.2-12.9-5.4-18.5-9.3c-11.2,10.9-18.2,26.1-18.2,43h28.5
				C1190.7,518.7,1193.7,507.2,1198.9,497.2z"/>
			<path d="M1190.7,533h-28.5c-1.2,0-2.1-1-2.1-2.1c0-16.9,6.7-32.7,18.9-44.5c0.7-0.7,1.9-0.8,2.7-0.2c5.5,3.8,11.6,6.9,18,9
				c0.6,0.2,1.1,0.7,1.3,1.2c0.2,0.6,0.2,1.2-0.1,1.8c-5.3,10.2-8,21.2-8,32.7C1192.9,532,1191.9,533,1190.7,533z M1164.4,528.7
				h24.2c0.3-10.5,2.8-20.9,7.3-30.3c-5.4-2-10.5-4.6-15.2-7.7C1170.7,501,1164.9,514.3,1164.4,528.7z"/>
		</g>
		<g>
			<path fill="#FFFFFF" d="M1190.7,530.9c0,12.1,3,23.6,8.2,33.7c7.3-2.4,15-3.8,23.1-3.8v-29.9H1190.7z"/>
			<path d="M1198.9,566.7c-0.8,0-1.5-0.4-1.9-1.2c-5.5-10.7-8.5-22.6-8.5-34.7c0-1.2,1-2.1,2.1-2.1h31.4c1.2,0,2.1,1,2.1,2.1v29.9
				c0,1.2-1,2.1-2.1,2.1c-7.6,0-15.2,1.2-22.4,3.6C1199.4,566.6,1199.2,566.7,1198.9,566.7z M1192.9,533c0.3,10.1,2.7,19.8,7.1,28.9
				c6.5-2,13.1-3.1,19.9-3.3V533H1192.9z"/>
		</g>
		<g>
			<path fill="#FFFFFF" d="M1222.1,500.9c-8.1,0-15.9-1.3-23.1-3.8c-5.2,10.1-8.2,21.5-8.2,33.7h31.4V500.9z"/>
			<path d="M1222.1,533h-31.4c-1.2,0-2.1-1-2.1-2.1c0-12,2.9-24,8.5-34.7c0.5-0.9,1.6-1.4,2.6-1c7.3,2.4,14.8,3.6,22.4,3.6
				c1.2,0,2.1,1,2.1,2.1v29.9C1224.2,532,1223.3,533,1222.1,533z M1192.9,528.7h27V503c-6.7-0.2-13.4-1.3-19.9-3.3
				C1195.6,508.9,1193.2,518.6,1192.9,528.7z"/>
		</g>
		<g>
			<path fill="#FFFFFF" d="M1222.1,530.9h31.4c0-12.2-3-23.6-8.2-33.7c-7.3,2.4-15,3.8-23.1,3.8V530.9z"/>
			<path d="M1253.4,533h-31.4c-1.2,0-2.1-1-2.1-2.1v-29.9c0-1.2,1-2.1,2.1-2.1c7.6,0,15.2-1.2,22.4-3.6c1-0.3,2.1,0.1,2.6,1
				c5.6,10.6,8.5,22.6,8.5,34.7C1255.6,532,1254.6,533,1253.4,533z M1224.2,528.7h27c-0.3-10.1-2.7-19.9-7.2-28.9
				c-6.5,2-13.1,3.1-19.9,3.3V528.7z"/>
		</g>
		<g>
			<path fill="#FFFFFF" d="M1222.1,560.8c8.1,0,15.9,1.3,23.1,3.8c5.3-10.1,8.2-21.5,8.2-33.7h-31.4V560.8z"/>
			<path d="M1245.2,566.7c-0.2,0-0.5,0-0.7-0.1c-7.3-2.4-14.8-3.6-22.4-3.6c-1.2,0-2.1-1-2.1-2.1v-29.9c0-1.2,1-2.1,2.1-2.1h31.4
				c1.2,0,2.1,1,2.1,2.1c0,12-2.9,24-8.5,34.7C1246.7,566.3,1246,566.7,1245.2,566.7z M1224.2,558.7c6.7,0.2,13.4,1.3,19.9,3.3
				c4.5-9.1,6.9-18.8,7.2-28.9h-27V558.7z"/>
		</g>
		<g>
			<path fill="#FFFFFF" d="M1221.9,471c-16.1,0.1-30.7,6.5-41.5,16.9c5.6,3.9,11.9,7.1,18.5,9.3
				C1204.4,486.7,1212.3,477.7,1221.9,471z"/>
			<path d="M1198.9,499.3c-0.2,0-0.5,0-0.7-0.1c-6.8-2.3-13.2-5.5-19.1-9.6c-0.5-0.4-0.9-1-0.9-1.6c-0.1-0.6,0.2-1.3,0.6-1.7
				c11.6-11.2,26.8-17.4,43-17.5c0,0,0,0,0,0c0.9,0,1.8,0.6,2,1.5c0.3,0.9,0,1.9-0.8,2.4c-9.3,6.5-17,15.3-22.3,25.4
				C1200.5,498.9,1199.7,499.3,1198.9,499.3z M1183.9,487.6c4.4,2.8,9.1,5.1,14,6.9c4.4-7.9,10.2-15.1,17.2-21
				C1203.5,475,1192.7,479.8,1183.9,487.6z"/>
		</g>
		<g>
			<path fill="#FFFFFF" d="M1222.2,471c-0.1,0-0.1-0.1-0.2-0.1c0,0-0.1,0.1-0.2,0.1c0.1,0,0.1,0,0.2,0
				C1222.1,471,1222.2,471,1222.2,471z"/>
			<path d="M1222.2,473.1c0,0-0.1,0-0.2,0c-1,0-1.9-0.7-2.1-1.6c-0.2-0.9,0.1-1.9,0.9-2.4c0.8-0.6,1.7-0.6,2.5,0
				c0.8,0.5,1.3,1.5,1,2.4C1224.1,472.5,1223.2,473.1,1222.2,473.1z"/>
		</g>
		<g>
			<path fill="#FFFFFF" d="M1198.9,497.2c7.3,2.4,15,3.8,23.1,3.8V471c0,0-0.1,0-0.2,0C1212.3,477.7,1204.4,486.7,1198.9,497.2z"/>
			<path d="M1222.1,503.1c-8.1,0-16.1-1.3-23.8-3.9c-0.6-0.2-1.1-0.7-1.3-1.2c-0.2-0.6-0.2-1.2,0.1-1.8c5.6-10.7,13.7-20,23.6-26.9
				c1.3-0.9,3.5,0.1,3.5,1.8v29.9C1224.2,502.1,1223.3,503.1,1222.1,503.1z M1202.1,495.9c5.8,1.7,11.8,2.7,17.8,2.8v-23.6
				C1212.7,480.8,1206.6,487.9,1202.1,495.9z"/>
		</g>
		<g>
			<path fill="#FFFFFF" d="M1222.1,500.9c8.1,0,15.9-1.3,23.1-3.8c-5.4-10.5-13.4-19.4-23-26.2c-0.1,0-0.1,0-0.2,0V500.9z"/>
			<path d="M1222.1,503.1c-1.2,0-2.1-1-2.1-2.1V471c0-1.2,1-2.1,2.1-2.1c0.4,0,1.1,0.1,1.4,0.4c9.9,6.9,18.1,16.3,23.6,26.9
				c0.3,0.6,0.3,1.2,0.1,1.8c-0.2,0.6-0.7,1-1.3,1.2C1238.2,501.8,1230.2,503.1,1222.1,503.1z M1224.2,475.1v23.6
				c6-0.2,12-1.1,17.8-2.8C1237.5,487.9,1231.4,480.8,1224.2,475.1z"/>
		</g>
		<g>
			<path fill="#FFFFFF" d="M1222.2,590.7c16.1,0,30.7-6.5,41.5-16.9c-5.6-3.9-11.9-7.1-18.5-9.3C1239.7,575,1231.8,584,1222.2,590.7
				z"/>
			<path d="M1222.2,592.8c-0.9,0-1.8-0.6-2-1.5c-0.3-0.9,0-1.9,0.8-2.4c9.3-6.5,17-15.3,22.3-25.4c0.5-0.9,1.6-1.4,2.6-1
				c6.8,2.3,13.2,5.5,19.1,9.6c0.5,0.4,0.9,1,0.9,1.6c0.1,0.6-0.2,1.3-0.6,1.7C1253.6,586.6,1238.3,592.8,1222.2,592.8L1222.2,592.8
				z M1246.2,567.2c-4.4,7.9-10.2,15.1-17.2,21c11.6-1.4,22.4-6.3,31.2-14C1255.9,571.3,1251.2,569,1246.2,567.2z"/>
		</g>
		<g>
			<path fill="#FFFFFF" d="M1198.9,564.5c-6.6,2.2-12.9,5.4-18.5,9.3c10.7,10.4,25.3,16.8,41.5,16.9
				C1212.3,584,1204.4,575,1198.9,564.5z"/>
			<path d="M1221.9,592.8L1221.9,592.8c-16.1,0-31.4-6.3-43-17.5c-0.5-0.4-0.7-1.1-0.6-1.7c0-0.6,0.4-1.2,0.9-1.6
				c5.8-4.1,12.2-7.3,19-9.6c1-0.3,2.1,0.1,2.6,1c5.3,10.1,13,18.9,22.3,25.4c0.8,0.5,1.1,1.5,0.8,2.4
				C1223.7,592.2,1222.8,592.8,1221.9,592.8z M1183.9,574.1c8.8,7.8,19.6,12.6,31.2,14c-6.9-5.9-12.8-13-17.2-21
				C1193,569,1188.3,571.3,1183.9,574.1z"/>
		</g>
		<g>
			<path fill="#FFFFFF" d="M1221.9,590.7c0.1,0,0.1,0.1,0.2,0.1c0.1,0,0.1-0.1,0.2-0.1c-0.1,0-0.1,0-0.2,0
				C1222,590.7,1222,590.7,1221.9,590.7z"/>
			<path d="M1222,592.9c-0.5,0-0.9-0.1-1.2-0.4c-0.8-0.5-1.2-1.5-0.9-2.4c0.5-1.9,3.7-1.9,4.3-0.1c0.3,0.9,0.1,1.9-0.7,2.4
				C1223,592.8,1222.5,592.9,1222,592.9z"/>
		</g>
		<g>
			<path fill="#FFFFFF" d="M1222.1,560.8c-8.1,0-15.9,1.3-23.1,3.8c5.5,10.5,13.4,19.4,23,26.2c0.1,0,0.1,0,0.2,0V560.8z"/>
			<path d="M1222.1,592.8h-0.2c-0.4,0-0.9-0.1-1.2-0.4c-9.9-6.9-18.1-16.2-23.6-26.9c-0.3-0.6-0.3-1.2-0.1-1.8
				c0.2-0.6,0.7-1,1.3-1.2c7.7-2.6,15.7-3.9,23.8-3.9c1.2,0,2.1,1,2.1,2.1v29.9C1224.2,591.9,1223.3,592.8,1222.1,592.8z
				 M1202.1,565.8c4.5,8,10.6,15.1,17.8,20.7V563C1213.9,563.1,1207.9,564.1,1202.1,565.8z"/>
		</g>
		<g>
			<path fill="#FFFFFF" d="M1245.2,564.5c-7.3-2.4-15-3.8-23.1-3.8v29.9c0.1,0,0.1,0,0.2,0C1231.8,584,1239.7,575,1245.2,564.5z"/>
			<path d="M1222.2,592.8h-0.2c-1.2,0-2.1-1-2.1-2.1v-29.9c0-1.2,1-2.1,2.1-2.1c8.1,0,16.1,1.3,23.8,3.9c0.6,0.2,1.1,0.6,1.3,1.2
				c0.2,0.6,0.2,1.2-0.1,1.8c-5.6,10.7-13.7,20-23.6,26.9C1223.1,592.7,1222.7,592.8,1222.2,592.8z M1224.2,563v23.6
				c7.2-5.7,13.3-12.8,17.8-20.7C1236.2,564.1,1230.3,563.1,1224.2,563z"/>
		</g>
	</g>
</g>
</svg>
